<?xml version="1.0" encoding="utf-8"?>
<!-- Svg Vector Icons : http://www.onlinewebfonts.com/icon -->
<!DOCTYPE svg PUBLIC "-//W3C//DTD SVG 1.1//EN" "http://www.w3.org/Graphics/SVG/1.1/DTD/svg11.dtd">
<svg version="1.1" xmlns="http://www.w3.org/2000/svg" xmlns:xlink="http://www.w3.org/1999/xlink" x="0px" y="0px" viewBox="0 0 1000 1000" enable-background="new 0 0 1000 1000" xml:space="preserve">
<metadata> Svg Vector Icons : http://www.onlinewebfonts.com/icon </metadata>
<g><path d="M963,380.9L567.6,759.4c-20.3,20.3-42.8,30.4-67.6,30.4c-24.8,0-47.3-10.1-67.6-30.4L37,380.9c-18-18-27-41.1-27-69.3c0-28.2,9-51.3,27-69.3c42.8-42.8,86.7-42.8,131.8,0L500,560l331.2-317.7c45.1-42.8,89-42.8,131.8,0c18,18,27,41.1,27,69.3C990,339.8,981,362.9,963,380.9L963,380.9"/></g>
</svg>